<?xml version="1.0" encoding="utf-8"?>
<svg viewBox="99.849 153.555 288.199 77.155" xmlns="http://www.w3.org/2000/svg">
  <g fill-rule="nonzero" fill="none" transform="matrix(1, 0, 0, 1, 130.19739, 193.495349)">
    <path d="M 14.351 -21.057 C 6.626 -21.061 -1.434 -19.321 -9.569 -17.064 C -10.602 -16.856 -11.61 -16.18 -12.143 -15.344 C -12.633 -14.556 -12.811 -13.765 -12.964 -12.936 C -13.754 -8.508 -13.658 -4.16 -13.494 0.658 C -13.458 1.761 -13.294 3.068 -12.779 3.863 C -12.241 4.666 -11.319 5.176 -10.218 5.343 C -8.811 5.549 -7.4 5.724 -5.986 5.868 L -6.298 14.566 C -6.346 15.258 -6.008 15.833 -5.588 16.164 C -5.212 16.45 -4.793 16.577 -4.363 16.609 C -3.503 16.674 -2.494 16.306 -1.993 15.352 C 0.202 11.128 1.579 9.263 4.324 6.457 C 11.482 6.633 17.731 6.235 24.806 5.712 C 27.307 5.647 29.024 3.602 29.478 1.969 C 30.835 -2.263 31.046 -7.487 31.19 -12.768 C 31.251 -14.861 30.525 -16.916 29.24 -18.002 C 28.018 -18.993 26.538 -19.352 25.182 -19.72 C 21.415 -20.573 17.647 -21.031 14.351 -21.057 Z M 24.641 -17.747 C 25.999 -17.378 27.196 -17.023 27.951 -16.41 C 29.211 -15.071 29.169 -14.18 29.151 -12.735 C 29.009 -7.613 28.763 -2.642 27.607 1.125 C 27.109 2.53 26.241 3.53 24.601 3.681 C 17.393 4.214 11.139 4.626 3.894 4.42 C 3.609 4.41 3.333 4.52 3.131 4.722 C 0.087 7.796 -1.47 9.932 -3.79 14.398 C -3.844 14.5 -3.961 14.562 -4.105 14.573 C -4.202 14.568 -4.241 14.493 -4.247 14.425 L -3.933 4.993 C -3.914 4.484 -4.334 3.998 -4.84 3.943 C -6.532 3.781 -8.219 3.574 -9.9 3.323 C -10.626 3.212 -10.894 3.013 -11.093 2.717 C -11.439 1.892 -11.431 1.382 -11.458 0.589 C -11.62 -4.186 -11.7 -8.359 -10.967 -12.511 C -10.899 -13.125 -10.669 -13.753 -10.425 -14.278 C -10.021 -14.91 -9.402 -15.003 -8.781 -15.175 C -0.825 -17.372 6.959 -19.015 14.287 -19.02 C 17.879 -18.89 21.651 -18.53 24.641 -17.747 L 24.641 -17.747 Z M -2.838 -9.657 C -3.934 -8.344 -3.825 -6.561 -2.978 -5.367 C -2.536 -4.742 -1.846 -4.239 -1.006 -4.125 C 0.085 -4.035 0.777 -4.477 1.524 -4.985 C 2.877 -6.161 3.014 -8.213 1.985 -9.695 C 1.461 -10.45 0.623 -10.903 -0.233 -10.935 C -1.405 -10.923 -2.201 -10.4 -2.838 -9.658 L -2.838 -9.657 Z M 9.018 -10.729 C 7.926 -10.694 7.043 -9.938 6.504 -9.122 C 5.887 -8.189 5.527 -7.021 6.026 -5.876 C 6.986 -3.673 10.303 -3.7 11.626 -5.939 C 12.236 -6.971 12.08 -8.144 11.626 -8.995 C 11.174 -9.845 10.49 -10.538 9.495 -10.697 C 9.338 -10.723 9.178 -10.734 9.018 -10.729 L 9.018 -10.729 Z M 18.643 -10.522 C 18.303 -10.53 17.953 -10.498 17.625 -10.411 C 16.313 -10.061 15.196 -8.707 15.365 -6.974 C 15.451 -6.102 15.852 -5.252 16.575 -4.666 C 17.298 -4.081 18.348 -3.819 19.455 -4.046 C 20.727 -4.306 21.515 -5.331 21.778 -6.321 C 22.041 -7.311 21.975 -8.32 21.364 -9.138 C 20.72 -9.995 19.716 -10.506 18.644 -10.522 L 18.643 -10.522 Z M -0.322 -8.899 C -0.077 -8.897 0.116 -8.819 0.315 -8.533 C 0.76 -7.891 0.636 -6.918 0.187 -6.528 C -0.26 -6.138 -0.539 -6.104 -0.735 -6.13 C -0.931 -6.157 -1.13 -6.292 -1.308 -6.544 C -1.648 -7.024 -1.748 -7.8 -1.301 -8.354 C -1.063 -8.67 -0.626 -8.867 -0.321 -8.899 L -0.322 -8.899 Z M 9.161 -8.676 C 9.199 -8.67 9.625 -8.423 9.829 -8.04 C 10.033 -7.657 10.071 -7.301 9.877 -6.974 C 9.3 -5.998 8.073 -6.262 7.887 -6.687 C 7.817 -6.849 7.87 -7.5 8.207 -8.007 C 8.542 -8.516 8.964 -8.707 9.161 -8.677 L 9.161 -8.676 Z M 19.725 -7.928 C 19.787 -7.845 19.938 -7.288 19.821 -6.846 C 19.703 -6.404 19.511 -6.131 19.041 -6.035 C 18.439 -5.911 18.101 -6.035 17.848 -6.242 C 17.594 -6.447 17.423 -6.794 17.386 -7.165 C 17.296 -8.085 17.626 -8.298 18.15 -8.438 C 18.76 -8.588 19.45 -8.326 19.725 -7.928 L 19.725 -7.928 Z" style="fill: rgb(255, 255, 255);"/>
    <path d="M 43.994 -16.94 C 44.01 -17.2 44.105 -17.434 44.281 -17.641 C 44.455 -17.847 44.713 -17.961 44.982 -17.951 L 51.808 -17.951 C 52.038 -17.951 52.275 -17.855 52.52 -17.664 C 52.753 -17.497 52.89 -17.227 52.888 -16.94 L 52.888 -6.047 L 64.309 -6.047 L 64.309 -16.94 C 64.309 -17.216 64.405 -17.453 64.596 -17.652 C 64.788 -17.852 65.036 -17.952 65.343 -17.952 L 72.077 -17.952 C 72.383 -17.952 72.651 -17.875 72.881 -17.722 C 73.111 -17.568 73.226 -17.323 73.226 -16.986 L 73.226 15.164 C 73.226 15.501 73.126 15.754 72.926 15.922 C 72.728 16.091 72.467 16.175 72.146 16.175 L 65.343 16.175 C 65.037 16.175 64.788 16.091 64.596 15.922 C 64.405 15.754 64.309 15.502 64.309 15.164 L 64.309 2.111 L 52.888 2.111 L 52.888 15.164 C 52.888 15.486 52.784 15.734 52.578 15.911 C 52.371 16.087 52.091 16.175 51.738 16.175 L 44.982 16.175 C 44.339 16.175 44.01 15.876 43.994 15.279 L 43.994 -16.94 Z M 106.869 15.785 C 106.67 15.953 106.459 16.06 106.237 16.106 C 106.03 16.15 105.818 16.174 105.606 16.176 L 102.136 16.176 C 101.86 16.176 101.622 16.126 101.423 16.026 C 101.223 15.926 101.055 15.792 100.917 15.624 C 100.776 15.449 100.66 15.255 100.573 15.049 C 100.481 14.832 100.404 14.61 100.343 14.383 L 99.631 11.441 C 99.401 11.916 99.068 12.456 98.631 13.061 C 98.158 13.703 97.598 14.275 96.965 14.761 C 96.291 15.291 95.486 15.735 94.552 16.095 C 93.617 16.455 92.545 16.635 91.334 16.635 C 89.588 16.635 88.002 16.298 86.577 15.624 C 85.182 14.972 83.941 14.032 82.935 12.866 C 81.932 11.702 81.154 10.342 80.603 8.786 C 80.051 7.232 79.775 5.573 79.775 3.812 L 79.775 -11.241 C 79.775 -11.823 79.902 -12.263 80.155 -12.562 C 80.407 -12.861 80.809 -13.01 81.361 -13.01 L 86.669 -13.01 C 87.329 -13.01 87.78 -12.9 88.025 -12.677 C 88.27 -12.455 88.393 -12.022 88.393 -11.379 L 88.393 3.581 C 88.393 4.241 88.543 4.865 88.841 5.455 C 89.14 6.045 89.534 6.565 90.025 7.017 C 90.515 7.469 91.07 7.826 91.691 8.086 C 92.311 8.346 92.943 8.476 93.587 8.476 C 94.138 8.476 94.709 8.346 95.299 8.086 C 95.893 7.822 96.443 7.469 96.93 7.04 C 97.428 6.604 97.838 6.09 98.16 5.5 C 98.482 4.91 98.642 4.286 98.642 3.628 L 98.642 -11.31 C 98.642 -11.57 98.692 -11.83 98.792 -12.091 C 98.892 -12.351 99.041 -12.551 99.24 -12.689 C 99.439 -12.811 99.627 -12.895 99.803 -12.941 C 99.979 -12.987 100.183 -13.011 100.412 -13.011 L 105.606 -13.011 C 106.264 -13.011 106.739 -12.849 107.03 -12.528 C 107.321 -12.206 107.467 -11.777 107.467 -11.241 L 107.467 14.475 C 107.467 14.765 107.402 15.034 107.272 15.279 C 107.142 15.524 106.962 15.716 106.732 15.853 L 106.869 15.785 L 106.869 15.785 Z M 133.55 12.613 C 133.136 13.027 132.68 13.471 132.183 13.946 C 131.685 14.421 131.137 14.866 130.54 15.279 C 129.939 15.694 129.292 16.038 128.61 16.302 C 127.899 16.574 127.142 16.71 126.38 16.704 C 124.297 16.704 122.378 16.314 120.623 15.532 C 118.913 14.781 117.372 13.69 116.096 12.326 C 114.832 10.97 113.844 9.373 113.132 7.534 C 112.419 5.696 112.063 3.72 112.063 1.605 C 112.063 -0.525 112.419 -2.505 113.132 -4.335 C 113.844 -6.165 114.832 -7.759 116.096 -9.115 C 117.371 -10.479 118.912 -11.566 120.623 -12.309 C 122.378 -13.083 124.297 -13.47 126.38 -13.47 C 127.223 -13.47 127.993 -13.347 128.69 -13.102 C 129.363 -12.869 130.003 -12.553 130.597 -12.16 C 131.172 -11.777 131.7 -11.344 132.183 -10.862 C 132.665 -10.379 133.121 -9.908 133.55 -9.448 L 133.55 -19.951 C 133.55 -20.441 133.7 -20.854 133.998 -21.191 C 134.297 -21.529 134.745 -21.697 135.343 -21.697 L 140.513 -21.697 C 140.713 -21.697 140.923 -21.655 141.145 -21.571 C 141.367 -21.486 141.57 -21.368 141.755 -21.214 C 141.938 -21.061 142.087 -20.877 142.202 -20.663 C 142.317 -20.448 142.375 -20.211 142.375 -19.951 L 142.375 14.406 C 142.375 15.586 141.755 16.176 140.513 16.176 L 136.009 16.176 C 135.703 16.176 135.465 16.136 135.297 16.06 C 135.13 15.985 134.984 15.87 134.871 15.727 C 134.743 15.558 134.639 15.372 134.561 15.176 C 134.453 14.916 134.338 14.659 134.217 14.406 L 133.55 12.613 L 133.55 12.613 Z M 120.336 1.605 C 120.329 2.571 120.488 3.531 120.807 4.444 C 121.121 5.324 121.569 6.087 122.152 6.73 C 122.741 7.378 123.456 7.898 124.254 8.258 C 125.074 8.634 125.982 8.821 126.978 8.821 C 127.958 8.821 128.881 8.645 129.747 8.293 C 130.588 7.956 131.357 7.46 132.01 6.833 C 132.66 6.204 133.186 5.46 133.562 4.639 C 133.952 3.796 134.171 2.892 134.217 1.927 L 134.217 1.605 C 134.221 0.643 134.033 -0.31 133.665 -1.198 C 133.309 -2.07 132.791 -2.865 132.137 -3.542 C 131.482 -4.219 130.702 -4.762 129.839 -5.139 C 128.938 -5.534 127.963 -5.734 126.978 -5.725 C 125.982 -5.725 125.074 -5.53 124.254 -5.139 C 123.434 -4.749 122.734 -4.216 122.152 -3.542 C 121.561 -2.853 121.104 -2.057 120.807 -1.198 C 120.492 -0.298 120.333 0.65 120.337 1.605 L 120.336 1.605 Z M 169.056 12.613 C 168.642 13.027 168.186 13.471 167.688 13.946 C 167.19 14.421 166.642 14.866 166.045 15.279 C 165.444 15.694 164.797 16.038 164.115 16.302 C 163.404 16.574 162.647 16.71 161.885 16.704 C 159.802 16.704 157.883 16.314 156.129 15.532 C 154.418 14.781 152.878 13.69 151.601 12.326 C 150.338 10.97 149.349 9.373 148.637 7.534 C 147.925 5.696 147.568 3.72 147.568 1.605 C 147.568 -0.525 147.925 -2.505 148.637 -4.335 C 149.349 -6.165 150.337 -7.759 151.601 -9.115 C 152.876 -10.479 154.417 -11.566 156.129 -12.309 C 157.883 -13.083 159.802 -13.47 161.885 -13.47 C 162.728 -13.47 163.498 -13.347 164.195 -13.102 C 164.868 -12.869 165.508 -12.553 166.102 -12.16 C 166.677 -11.777 167.205 -11.344 167.688 -10.862 C 168.171 -10.379 168.626 -9.908 169.055 -9.448 L 169.055 -19.951 C 169.055 -20.441 169.205 -20.854 169.503 -21.191 C 169.803 -21.529 170.25 -21.697 170.848 -21.697 L 176.018 -21.697 C 176.218 -21.697 176.428 -21.655 176.65 -21.571 C 176.873 -21.486 177.076 -21.368 177.26 -21.214 C 177.443 -21.061 177.593 -20.877 177.708 -20.663 C 177.822 -20.448 177.88 -20.211 177.88 -19.951 L 177.88 14.406 C 177.88 15.586 177.26 16.176 176.018 16.176 L 171.514 16.176 C 171.208 16.176 170.97 16.136 170.802 16.06 C 170.636 15.984 170.49 15.87 170.377 15.727 C 170.249 15.558 170.145 15.372 170.067 15.176 C 169.959 14.916 169.844 14.659 169.722 14.406 L 169.055 12.613 L 169.056 12.613 Z M 155.841 1.605 C 155.834 2.571 155.993 3.531 156.312 4.444 C 156.627 5.324 157.075 6.087 157.657 6.73 C 158.246 7.378 158.962 7.898 159.76 8.258 C 160.58 8.634 161.487 8.821 162.483 8.821 C 163.463 8.821 164.386 8.645 165.252 8.293 C 166.094 7.956 166.862 7.46 167.516 6.833 C 168.165 6.204 168.691 5.46 169.066 4.639 C 169.457 3.796 169.676 2.892 169.722 1.927 L 169.722 1.605 C 169.726 0.643 169.538 -0.31 169.17 -1.198 C 168.814 -2.07 168.296 -2.865 167.642 -3.542 C 166.987 -4.219 166.207 -4.762 165.344 -5.139 C 164.443 -5.534 163.468 -5.734 162.483 -5.725 C 161.487 -5.725 160.579 -5.53 159.76 -5.139 C 158.94 -4.749 158.239 -4.216 157.657 -3.542 C 157.066 -2.853 156.609 -2.057 156.312 -1.198 C 155.997 -0.298 155.838 0.65 155.842 1.605 L 155.841 1.605 Z M 183.994 -19.928 C 183.994 -20.418 184.116 -20.831 184.361 -21.168 C 184.607 -21.506 185.028 -21.674 185.625 -21.674 L 191.255 -21.674 C 191.409 -21.674 191.57 -21.632 191.738 -21.548 C 191.915 -21.458 192.074 -21.337 192.209 -21.191 C 192.355 -21.038 192.477 -20.854 192.577 -20.64 C 192.677 -20.425 192.727 -20.188 192.727 -19.928 L 192.727 14.406 C 192.727 14.988 192.562 15.428 192.232 15.727 C 191.903 16.026 191.478 16.175 190.957 16.175 L 185.625 16.175 C 185.028 16.175 184.607 16.025 184.361 15.727 C 184.116 15.428 183.994 14.987 183.994 14.406 L 183.994 -19.928 Z M 222.694 12.682 C 221.362 13.912 219.821 14.897 218.144 15.589 C 216.446 16.288 214.626 16.644 212.789 16.635 C 210.689 16.635 208.706 16.252 206.837 15.485 C 205.011 14.746 203.341 13.666 201.919 12.303 C 200.503 10.936 199.363 9.309 198.564 7.511 C 197.736 5.673 197.323 3.674 197.323 1.513 C 197.323 0.165 197.487 -1.141 197.817 -2.405 C 198.136 -3.642 198.607 -4.835 199.219 -5.955 C 199.824 -7.059 200.566 -8.082 201.425 -9 C 202.283 -9.921 203.26 -10.721 204.332 -11.379 C 205.423 -12.046 206.597 -12.564 207.825 -12.919 C 209.117 -13.292 210.456 -13.477 211.8 -13.47 C 213.072 -13.47 214.305 -13.301 215.5 -12.964 C 216.695 -12.627 217.818 -12.152 218.867 -11.54 C 219.917 -10.927 220.877 -10.191 221.751 -9.333 C 222.613 -8.49 223.369 -7.545 224.003 -6.518 C 224.632 -5.5 225.123 -4.403 225.463 -3.255 C 225.807 -2.098 225.98 -0.907 225.98 0.318 C 225.98 1.115 225.968 1.766 225.945 2.272 C 225.922 2.777 225.803 3.18 225.589 3.478 C 225.374 3.778 225.019 3.984 224.52 4.098 C 224.022 4.214 223.29 4.271 222.326 4.271 L 205.78 4.271 C 205.933 5.251 206.243 6.071 206.71 6.731 C 207.143 7.355 207.693 7.89 208.33 8.304 C 208.943 8.695 209.594 8.974 210.284 9.144 C 210.923 9.305 211.579 9.39 212.237 9.396 C 212.789 9.396 213.355 9.338 213.937 9.224 C 214.511 9.111 215.076 8.957 215.627 8.764 C 216.143 8.584 216.643 8.361 217.12 8.097 C 217.572 7.845 217.936 7.58 218.212 7.305 C 218.457 7.105 218.668 6.956 218.844 6.856 C 219.02 6.756 219.208 6.707 219.407 6.707 C 219.607 6.707 219.809 6.777 220.017 6.914 C 220.269 7.09 220.504 7.29 220.717 7.511 L 223.153 10.269 C 223.321 10.469 223.429 10.649 223.475 10.809 C 223.521 10.97 223.544 11.135 223.544 11.303 C 223.544 11.61 223.459 11.874 223.291 12.096 C 223.121 12.319 222.92 12.516 222.693 12.682 L 222.694 12.682 Z M 211.64 -6.461 C 211.042 -6.461 210.464 -6.342 209.905 -6.105 C 209.338 -5.863 208.808 -5.542 208.33 -5.151 C 207.84 -4.753 207.4 -4.301 207.009 -3.795 C 206.636 -3.318 206.316 -2.802 206.055 -2.255 L 217.798 -2.255 C 217.49 -2.832 217.141 -3.385 216.753 -3.91 C 216.385 -4.409 215.952 -4.857 215.466 -5.243 C 214.97 -5.634 214.41 -5.937 213.811 -6.139 C 213.191 -6.354 212.467 -6.461 211.64 -6.461 L 211.64 -6.461 Z" style="fill: rgb(255, 255, 255);"/>
  </g>
</svg>